HIERARCHY
ROOT Hips
{
	OFFSET 0.000000 103.266502 0.000000
	CHANNELS 6 Xposition Yposition Zposition Xrotation Yrotation Zrotation 
	JOINT Spine
	{
		OFFSET -0.002400 12.777504 0.315300
		CHANNELS 3 Xrotation Yrotation Zrotation
		JOINT Spine1
		{
			OFFSET -0.002067 5.816869 0.032633
			CHANNELS 3 Xrotation Yrotation Zrotation
			JOINT Spine1_split
			{
				OFFSET -0.002067 5.816869 0.032633
				CHANNELS 3 Xrotation Yrotation Zrotation
				JOINT Spine2
				{
					OFFSET -0.002067 5.816869 0.032633
					CHANNELS 3 Xrotation Yrotation Zrotation
					JOINT Neck
					{
						OFFSET -0.003700 21.199493 -0.826900
						CHANNELS 3 Xrotation Yrotation Zrotation
						JOINT Head
						{
							OFFSET 0.000000 20.442200 4.834800
							CHANNELS 3 Xrotation Yrotation Zrotation
							JOINT HeadTop_End
							{
								OFFSET 0.000000 34.668396 4.968400
								CHANNELS 3 Xrotation Yrotation Zrotation
								End Site
								{
									OFFSET 0.000000 0.000000 0.000000
								}
							}
						}
					}
					JOINT LeftShoulder
					{
						OFFSET 3.288150 8.794197 -1.372250
						CHANNELS 3 Xrotation Yrotation Zrotation
						JOINT LeftShoulder_split
						{
							OFFSET 3.288150 8.794197 -1.372250
							CHANNELS 3 Xrotation Yrotation Zrotation
							JOINT LeftArm
							{
								OFFSET 11.953299 -2.279007 -0.146200
								CHANNELS 3 Xrotation Yrotation Zrotation
								JOINT LeftForeArm
								{
									OFFSET 18.448900 0.000000 0.000000
									CHANNELS 3 Xrotation Yrotation Zrotation
									JOINT LeftHand
									{
										OFFSET 29.527798 0.000000 0.000000
										CHANNELS 3 Xrotation Yrotation Zrotation
										JOINT LeftHandThumb1
										{
											OFFSET 10.739754 -2.369614 9.225399
											CHANNELS 3 Xrotation Yrotation Zrotation
											JOINT LeftHandThumb2
											{
												OFFSET 4.926170 -2.844131 2.844125
												CHANNELS 3 Xrotation Yrotation Zrotation
												JOINT LeftHandThumb3
												{
													OFFSET 4.614891 -2.664413 2.664409
													CHANNELS 3 Xrotation Yrotation Zrotation
													JOINT LeftHandThumb4
													{
														OFFSET 4.432465 -2.559082 2.559083
														CHANNELS 3 Xrotation Yrotation Zrotation
														End Site
														{
															OFFSET 0.000000 0.000000 0.000000
														}
													}
												}
											}
										}
										JOINT LeftHandIndex1
										{
											OFFSET 26.467674 0.187653 6.405298
											CHANNELS 3 Xrotation Yrotation Zrotation
											JOINT LeftHandIndex2
											{
												OFFSET 8.792900 0.000000 0.000000
												CHANNELS 3 Xrotation Yrotation Zrotation
												JOINT LeftHandIndex3
												{
													OFFSET 10.075203 0.000000 0.000000
													CHANNELS 3 Xrotation Yrotation Zrotation
													End Site
													{
														OFFSET 0.000000 0.000000 0.000000
													}
												}
											}
										}
										JOINT LeftHandMiddle1
										{
											OFFSET 25.764404 0.000000 0.000000
											CHANNELS 3 Xrotation Yrotation Zrotation
											JOINT LeftHandMiddle2
											{
												OFFSET 9.393974 0.000000 0.000000
												CHANNELS 3 Xrotation Yrotation Zrotation
												JOINT LeftHandMiddle3
												{
													OFFSET 10.771950 0.000000 0.000000
													CHANNELS 3 Xrotation Yrotation Zrotation
													End Site
													{
														OFFSET 0.000000 0.000000 0.000000
													}
												}
											}
										}
										JOINT LeftHandRing1
										{
											OFFSET 24.660927 0.144547 -6.225808
											CHANNELS 3 Xrotation Yrotation Zrotation
											JOINT LeftHandRing2
											{
												OFFSET 9.393799 0.000000 0.000000
												CHANNELS 3 Xrotation Yrotation Zrotation
												JOINT LeftHandRing3
												{
													OFFSET 9.928497 0.000000 0.000000
													CHANNELS 3 Xrotation Yrotation Zrotation
													End Site
													{
														OFFSET 0.000000 0.000000 0.000000
													}
												}
											}
										}
										JOINT LeftHandPinky1
										{
											OFFSET 23.655350 0.125290 -12.815412
											CHANNELS 3 Xrotation Yrotation Zrotation
											JOINT LeftHandPinky2
											{
												OFFSET 8.425102 0.000000 0.000000
												CHANNELS 3 Xrotation Yrotation Zrotation
												JOINT LeftHandPinky3
												{
													OFFSET 8.147003 0.000000 0.000000
													CHANNELS 3 Xrotation Yrotation Zrotation
													End Site
													{
														OFFSET 0.000000 0.000000 0.000000
													}
												}
											}
										}
									}
								}
							}
						}
					}
					JOINT RightShoulder
					{
						OFFSET -3.249400 8.794197 -1.372250
						CHANNELS 3 Xrotation Yrotation Zrotation
						JOINT RightShoulder_split
						{
							OFFSET -3.249400 8.794197 -1.372250
							CHANNELS 3 Xrotation Yrotation Zrotation
							JOINT RightArm
							{
								OFFSET -11.953299 -2.279007 -0.146200
								CHANNELS 3 Xrotation Yrotation Zrotation
								JOINT RightForeArm
								{
									OFFSET -18.448900 0.000000 0.000000
									CHANNELS 3 Xrotation Yrotation Zrotation
									JOINT RightHand
									{
										OFFSET -29.527802 0.000000 0.000000
										CHANNELS 3 Xrotation Yrotation Zrotation
										JOINT RightHandThumb1
										{
											OFFSET -10.739754 -2.369614 9.225399
											CHANNELS 3 Xrotation Yrotation Zrotation
											JOINT RightHandThumb2
											{
												OFFSET -4.926170 -2.844131 2.844125
												CHANNELS 3 Xrotation Yrotation Zrotation
												JOINT RightHandThumb3
												{
													OFFSET -4.614891 -2.664413 2.664409
													CHANNELS 3 Xrotation Yrotation Zrotation
													JOINT RightHandThumb4
													{
														OFFSET -4.432465 -2.559082 2.559083
														CHANNELS 3 Xrotation Yrotation Zrotation
														End Site
														{
															OFFSET 0.000000 0.000000 0.000000
														}
													}
												}
											}
										}
										JOINT RightHandIndex1
										{
											OFFSET -26.467674 0.187653 6.405298
											CHANNELS 3 Xrotation Yrotation Zrotation
											JOINT RightHandIndex2
											{
												OFFSET -8.792900 0.000000 0.000000
												CHANNELS 3 Xrotation Yrotation Zrotation
												JOINT RightHandIndex3
												{
													OFFSET -10.075203 0.000000 0.000000
													CHANNELS 3 Xrotation Yrotation Zrotation
													End Site
													{
														OFFSET 0.000000 0.000000 0.000000
													}
												}
											}
										}
										JOINT RightHandMiddle1
										{
											OFFSET -25.764404 0.000000 0.000000
											CHANNELS 3 Xrotation Yrotation Zrotation
											JOINT RightHandMiddle2
											{
												OFFSET -9.393974 0.000000 0.000000
												CHANNELS 3 Xrotation Yrotation Zrotation
												JOINT RightHandMiddle3
												{
													OFFSET -10.771950 0.000000 0.000000
													CHANNELS 3 Xrotation Yrotation Zrotation
													End Site
													{
														OFFSET 0.000000 0.000000 0.000000
													}
												}
											}
										}
										JOINT RightHandRing1
										{
											OFFSET -24.660927 0.144547 -6.225808
											CHANNELS 3 Xrotation Yrotation Zrotation
											JOINT RightHandRing2
											{
												OFFSET -9.393799 0.000000 0.000000
												CHANNELS 3 Xrotation Yrotation Zrotation
												JOINT RightHandRing3
												{
													OFFSET -9.928497 0.000000 0.000000
													CHANNELS 3 Xrotation Yrotation Zrotation
													End Site
													{
														OFFSET 0.000000 0.000000 0.000000
													}
												}
											}
										}
										JOINT RightHandPinky1
										{
											OFFSET -23.655350 0.125290 -12.815412
											CHANNELS 3 Xrotation Yrotation Zrotation
											JOINT RightHandPinky2
											{
												OFFSET -8.425102 0.000000 0.000000
												CHANNELS 3 Xrotation Yrotation Zrotation
												JOINT RightHandPinky3
												{
													OFFSET -8.147003 0.000000 0.000000
													CHANNELS 3 Xrotation Yrotation Zrotation
													End Site
													{
														OFFSET 0.000000 0.000000 0.000000
													}
												}
											}
										}
									}
								}
							}
						}
					}
				}
			}
		}
	}
	JOINT LeftUpLeg
	{
		OFFSET 11.394100 -6.187798 -0.413800
		CHANNELS 3 Xrotation Yrotation Zrotation
		JOINT LeftLeg
		{
			OFFSET 0.430247 -32.302673 3.732800
			CHANNELS 3 Xrotation Yrotation Zrotation
			JOINT LeftFoot
			{
				OFFSET -0.430247 -48.264931 -6.423300
				CHANNELS 3 Xrotation Yrotation Zrotation
				JOINT LeftToeBase
				{
					OFFSET 4.230900 -16.068199 23.438400
					CHANNELS 3 Xrotation Yrotation Zrotation
					JOINT LeftToe_End
					{
						OFFSET 4.510700 0.695400 19.974600
						CHANNELS 3 Xrotation Yrotation Zrotation
						End Site
						{
							OFFSET 0.000000 0.000000 0.000000
						}
					}
				}
			}
		}
	}
	JOINT RightUpLeg
	{
		OFFSET -11.333700 -6.187798 -0.413800
		CHANNELS 3 Xrotation Yrotation Zrotation
		JOINT RightLeg
		{
			OFFSET -0.430392 -32.302628 3.733000
			CHANNELS 3 Xrotation Yrotation Zrotation
			JOINT RightFoot
			{
				OFFSET 0.430392 -48.264973 -6.423500
				CHANNELS 3 Xrotation Yrotation Zrotation
				JOINT RightToeBase
				{
					OFFSET -4.230900 -16.068199 23.438400
					CHANNELS 3 Xrotation Yrotation Zrotation
					JOINT RightToe_End
					{
						OFFSET -4.510700 0.695400 19.974600
						CHANNELS 3 Xrotation Yrotation Zrotation
						End Site
						{
							OFFSET 0.000000 0.000000 0.000000
						}
					}
				}
			}
		}
	}
}
MOTION
Frames: 4
Frame Time: 0.016667
11.559861 89.558228 -9.138916 55.097234 -6.889605 4.624068 6.433363 0.306046 -1.000950 15.063521 1.404745 -0.847226 0.000000 0.000000 0.000000 25.668454 1.557015 -0.177842 -24.368129 -0.913411 3.954657 -18.158089 5.659348 -4.296259 -0.000001 0.000000 0.000000 3.359789 -11.332868 0.850120 0.000000 0.000000 0.000000 -25.850576 -35.679727 -27.707653 -0.000016 -43.985274 0.000007 -8.602275 -8.370898 31.241190 0.699764 -6.020116 19.223933 19.074654 26.512440 -1.026338 3.271073 -0.981140 3.963648 -0.000001 0.000000 -0.000002 0.483454 4.482284 -23.673217 0.882583 3.094039 -31.835102 -0.000001 -0.000001 0.000001 2.472069 8.725192 -25.286093 1.505505 3.921798 -41.988824 0.000002 0.000002 -0.000001 3.074523 8.498776 -34.787619 1.107459 3.429301 -35.785939 0.000001 -0.000001 0.000002 3.603274 12.761720 -45.581278 0.673754 2.729597 -27.725814 0.000001 -0.000001 -0.000000 0.611289 31.893640 8.610633 0.000000 0.000000 0.000000 -33.996823 35.443767 11.882228 -0.000005 24.919375 -0.000004 0.648387 -4.749847 3.169669 -0.201454 3.035674 -7.196450 8.074853 6.487002 -14.042702 4.117387 15.542676 -37.393561 -0.000000 -0.000001 0.000001 -3.681010 8.703996 18.305342 0.000002 0.000001 0.000000 -0.000001 -0.000002 -0.000002 -0.122560 9.697885 1.310619 0.695571 -2.450409 31.689831 0.000003 -0.000002 -0.000002 -0.568130 7.106773 4.105414 0.435113 -1.967357 24.939883 0.000000 -0.000000 -0.000000 -8.414109 -1.159767 -7.809538 0.946335 -2.816013 37.143655 0.000002 -0.000001 -0.000002 -93.934444 -6.655987 5.982285 49.838494 10.110356 -4.396815 -7.852065 13.475718 -2.804819 -6.672995 0.000001 0.000001 0.000000 0.000000 -0.000000 -68.966770 7.613401 -4.215000 63.604279 1.940187 -5.002702 6.950092 -2.517679 5.705733 -44.182814 -5.750310 10.979465 -0.000000 -0.000000 0.000000 
11.506788 90.324234 -8.910172 53.782477 -7.303049 4.566599 6.388299 0.214857 -0.978009 14.959067 1.376009 -0.738084 0.000000 0.000000 0.000000 25.530267 1.548436 -0.069473 -24.070891 -0.806833 3.898659 -17.895412 6.094577 -4.244754 -0.000002 -0.000000 -0.000000 3.327528 -11.257729 0.298060 0.000000 0.000000 0.000000 -24.534518 -35.097299 -28.877995 -0.000021 -43.052779 0.000001 -8.185996 -8.336841 30.259026 0.699768 -6.020121 19.223941 19.074652 26.512429 -1.026336 3.271073 -0.981132 3.963648 -0.000001 0.000005 0.000004 0.483159 4.482383 -23.673111 0.882596 3.094068 -31.835198 0.000000 -0.000001 0.000001 2.472256 8.725274 -25.287807 1.505391 3.921685 -41.987143 0.000001 0.000002 -0.000002 3.074700 8.498852 -34.789579 1.107347 3.429149 -35.783983 0.000001 0.000000 -0.000001 3.603266 12.761715 -45.581274 0.673752 2.729596 -27.725823 0.000003 0.000000 -0.000000 0.454117 31.771882 9.248692 0.000000 0.000000 0.000000 -33.054803 34.716868 13.054994 0.000020 24.898753 -0.000021 0.795429 -4.377388 5.700449 -0.201460 3.035677 -7.196436 8.074866 6.487026 -14.042707 4.094461 15.548640 -37.387854 -0.000002 0.000001 -0.000003 -3.680991 8.703994 18.305337 -0.000001 0.000000 0.000000 0.000004 -0.000001 -0.000002 -0.122542 9.697894 1.310561 0.695578 -2.450416 31.689896 0.000002 0.000000 0.000000 -0.568083 7.106794 4.105299 0.435115 -1.967344 24.940036 0.000000 0.000001 0.000000 -8.414077 -1.159778 -7.809527 0.946324 -2.816021 37.143655 0.000000 0.000002 0.000003 -91.199445 -6.519866 6.357078 48.259204 10.092871 -4.411141 -7.635289 13.647602 -2.766034 -6.604019 -0.000001 -0.000001 -0.000000 0.000001 0.000000 -70.820442 7.757033 -4.212292 64.386049 1.132492 -4.720402 5.721274 -2.514095 5.535923 -40.462382 -5.298860 11.791036 -0.000001 0.000000 -0.000000 
11.450049 91.075378 -8.655411 52.440222 -7.751129 4.478649 6.347463 0.143065 -0.930547 14.862688 1.352665 -0.606152 0.000000 0.000000 0.000000 25.397845 1.548556 0.060528 -23.787324 -0.699830 3.812285 -17.607302 6.465522 -4.232234 -0.000003 -0.000000 -0.000000 3.282053 -11.154452 -0.322867 0.000000 0.000000 0.000000 -23.304168 -34.650140 -30.083339 0.000013 -41.915908 -0.000000 -7.881284 -8.386934 29.199704 0.699771 -6.020133 19.223940 19.074637 26.512455 -1.026336 3.271082 -0.981152 3.963647 0.000002 0.000001 0.000003 0.482891 4.482499 -23.672983 0.882602 3.094073 -31.835283 -0.000002 0.000001 -0.000001 2.472445 8.725369 -25.289515 1.505261 3.921543 -41.985443 0.000001 0.000000 -0.000003 3.074920 8.498938 -34.791505 1.107229 3.428981 -35.782036 -0.000002 0.000002 -0.000002 3.603281 12.761711 -45.581278 0.673754 2.729581 -27.725819 -0.000003 0.000002 -0.000002 0.383117 31.571566 9.612375 0.000000 0.000000 0.000000 -32.161906 33.923688 14.344978 0.000009 24.743680 0.000018 0.798865 -3.969775 7.957798 -0.201440 3.035681 -7.196442 8.074846 6.487000 -14.042702 4.071194 15.554735 -37.382080 -0.000001 0.000000 0.000002 -3.680993 8.703995 18.305332 0.000003 0.000003 0.000015 -0.000001 -0.000002 -0.000001 -0.122524 9.697896 1.310499 0.695575 -2.450419 31.689964 -0.000000 -0.000001 -0.000000 -0.568075 7.106801 4.105133 0.435121 -1.967356 24.940186 -0.000002 -0.000001 0.000000 -8.414091 -1.159753 -7.809537 0.946323 -2.816022 37.143668 0.000001 0.000000 0.000001 -88.437740 -6.355726 6.782946 46.705325 10.034246 -4.438356 -7.446588 13.824842 -2.718531 -6.547595 0.000008 0.000001 -0.000000 -0.000003 -0.000000 -72.215563 7.715081 -4.379213 64.404838 -0.163412 -4.420333 4.395209 -2.505203 5.088014 -36.015516 -4.771031 13.136852 0.000001 0.000000 -0.000000 
11.386375 91.815674 -8.380295 51.113208 -8.221837 4.339512 6.299907 0.091135 -0.864323 14.751832 1.342871 -0.457022 0.000000 0.000000 0.000000 25.248573 1.564635 0.205129 -23.519843 -0.601490 3.713256 -17.310548 6.769745 -4.222799 -0.000001 0.000000 -0.000000 3.231788 -11.021962 -0.952628 0.000000 0.000000 0.000000 -22.238206 -34.231566 -31.346641 -0.000016 -40.754513 -0.000008 -7.654840 -8.345745 28.070052 0.699762 -6.020121 19.223924 19.074651 26.512446 -1.026325 3.271095 -0.981141 3.963636 0.000000 -0.000001 0.000002 0.482583 4.482603 -23.672831 0.882615 3.094090 -31.835423 -0.000000 0.000001 -0.000001 2.472625 8.725461 -25.291226 1.505144 3.921409 -41.983721 0.000001 0.000002 -0.000001 3.075112 8.499028 -34.793455 1.107104 3.428805 -35.780076 -0.000000 -0.000002 0.000000 3.603257 12.761702 -45.581295 0.673754 2.729599 -27.725811 -0.000000 0.000001 -0.000005 0.372567 31.286409 9.795019 0.000000 0.000000 0.000000 -31.370557 33.055141 15.760122 -0.000008 24.457939 0.000011 0.679510 -3.567373 9.936558 -0.201452 3.035669 -7.196458 8.074854 6.486999 -14.042704 4.047565 15.560897 -37.376195 -0.000002 -0.000002 0.000002 -3.680985 8.703984 18.305320 -0.000004 0.000004 0.000005 0.000002 -0.000002 0.000001 -0.122507 9.697888 1.310442 0.695586 -2.450432 31.690005 -0.000002 -0.000002 -0.000001 -0.568024 7.106804 4.104986 0.435130 -1.967378 24.940316 0.000000 0.000001 0.000000 -8.414084 -1.159773 -7.809547 0.946330 -2.816020 37.143658 0.000001 -0.000001 0.000003 -85.688705 -6.178190 7.258913 45.156798 9.975980 -4.468922 -7.265847 13.960699 -2.674919 -6.482813 0.000005 -0.000003 -0.000001 0.000002 0.000000 -73.183824 7.458261 -4.652520 63.729585 -1.629578 -4.096488 2.989997 -2.486066 4.414611 -31.038463 -3.975796 14.601835 0.000001 -0.000001 0.000000 
